<?xml version="1.0" standalone="no"?>
<!DOCTYPE svg PUBLIC "-//W3C//DTD SVG 20010904//EN"
 "http://www.w3.org/TR/2001/REC-SVG-20010904/DTD/svg10.dtd">
<svg version="1.0" xmlns="http://www.w3.org/2000/svg"
 width="631.000000pt" height="720.000000pt" viewBox="0 0 631.000000 720.000000"
 preserveAspectRatio="xMidYMid meet">

<g transform="translate(0.000000,720.000000) scale(0.100000,-0.100000)"
fill="#000000" stroke="none">
<path d="M4817 7147 c-27 -21 -64 -82 -157 -262 -23 -44 -63 -120 -90 -170
-27 -49 -67 -126 -90 -170 -22 -44 -75 -145 -117 -225 -163 -312 -307 -589
-500 -970 -52 -102 -99 -192 -104 -200 -5 -8 -16 -31 -24 -50 -9 -19 -20 -42
-25 -50 -5 -8 -96 -190 -201 -405 -384 -785 -352 -723 -430 -804 -117 -119
-269 -194 -452 -222 -78 -12 -260 -6 -315 10 -50 15 -73 1 -144 -91 -65 -83
-156 -176 -213 -220 -16 -12 -32 -25 -35 -29 -3 -4 -34 -23 -70 -42 -136 -74
-301 -89 -446 -41 -44 15 -83 30 -89 34 -14 10 -149 58 -183 65 -178 34 -305
27 -467 -27 -90 -29 -209 -92 -275 -145 -104 -83 -205 -203 -263 -313 -93
-178 -121 -327 -93 -498 44 -277 259 -503 555 -585 103 -28 335 -30 430 -3 58
16 239 99 251 115 3 4 21 18 40 31 39 27 73 56 133 115 41 41 188 236 219 290
40 72 128 255 148 305 94 244 213 405 390 527 72 49 258 138 347 167 160 50
438 93 544 83 72 -6 102 -24 129 -78 56 -108 100 -397 95 -614 -8 -373 -123
-608 -415 -855 -109 -92 -298 -287 -342 -353 -110 -166 -146 -236 -188 -364
-31 -95 -49 -235 -43 -329 4 -71 36 -189 71 -267 78 -171 203 -307 362 -393
198 -108 463 -106 660 3 36 20 67 39 70 43 3 3 21 17 40 30 71 49 185 176 229
253 11 20 30 52 40 71 26 46 67 162 86 243 61 263 -22 575 -206 773 -135 145
-183 256 -183 420 0 158 49 290 181 492 35 53 63 104 63 114 0 10 -15 47 -34
83 -82 160 -113 304 -103 480 4 74 14 129 32 184 46 140 77 182 274 372 510
494 1150 1136 1741 1745 562 580 602 623 617 657 17 42 17 60 -3 67 -26 10
-74 -17 -227 -127 -80 -58 -155 -111 -166 -116 -11 -6 -25 -17 -33 -24 -7 -7
-35 -28 -63 -47 -27 -18 -52 -37 -55 -40 -3 -3 -27 -22 -55 -40 -27 -19 -56
-40 -65 -47 -8 -6 -125 -92 -259 -189 -135 -98 -252 -183 -260 -190 -32 -26
-107 -81 -156 -114 -27 -18 -52 -36 -55 -40 -3 -3 -21 -17 -40 -30 -19 -14
-42 -30 -50 -37 -8 -7 -73 -55 -145 -108 -71 -53 -144 -107 -161 -120 -17 -14
-62 -47 -100 -75 -38 -28 -80 -60 -94 -70 -145 -110 -164 -120 -183 -101 -9 9
54 209 246 785 142 425 260 783 262 796 3 13 27 91 53 174 91 279 201 631 212
677 14 57 10 103 -10 107 -8 1 -28 -8 -43 -21z m-1348 -3338 c34 -12 61 -53
61 -93 0 -43 -17 -71 -53 -91 -29 -15 -43 -17 -74 -9 -31 7 -42 17 -60 52 -19
38 -20 47 -9 79 8 24 24 43 47 55 39 21 46 22 88 7z m-2375 -844 c75 -20 169
-92 211 -162 134 -222 -4 -549 -292 -692 -183 -91 -401 -75 -523 39 -153 142
-155 381 -5 586 70 96 230 201 350 230 71 17 190 17 259 -1z m2211 -1610 c234
-105 300 -440 142 -711 -48 -81 -137 -164 -222 -204 -63 -31 -79 -34 -160 -34
-114 0 -173 23 -244 99 -162 171 -159 475 6 690 127 164 323 230 478 160z"/>
</g>
</svg>
